Coordinates
version=1
nRows=11
nColumns=40
inDegrees=yes

Units are S.I. units (second, meters, Newtons, ...)
Angles are in degrees.

endheader
time	pelvis_tilt	pelvis_list	pelvis_rotation	pelvis_tx	pelvis_ty	pelvis_tz	hip_flexion_r	hip_adduction_r	hip_rotation_r	knee_angle_r	knee_angle_r_beta	ankle_angle_r	subtalar_angle_r	mtp_angle_r	hip_flexion_l	hip_adduction_l	hip_rotation_l	knee_angle_l	knee_angle_l_beta	ankle_angle_l	subtalar_angle_l	mtp_angle_l	lumbar_extension	lumbar_bending	lumbar_rotation	arm_flex_r	arm_add_r	arm_rot_r	elbow_flex_r	pro_sup_r	wrist_flex_r	wrist_dev_r	arm_flex_l	arm_add_l	arm_rot_l	elbow_flex_l	pro_sup_l	wrist_flex_l	wrist_dev_l
     50.78250000	     -6.26572613	     -5.87576293	      1.54752808	      0.95288339	      0.91144701	      0.43412793	      4.78222734	     -1.99534280	    -12.42213839	     34.67428523	     34.67428523	     14.45148829	     -6.39063132	     -8.08885437	     32.44963404	     -7.70263325	     -2.26976391	     30.18835995	     30.18835995	      7.66462107	    -12.75464304	      3.86076109	     -9.33124016	      4.54117961	      3.63901020	     38.27151378	    -12.66576090	     -3.09598094	    101.77368721	     44.80457193	      0.00000000	      0.00000000	    -14.75481907	     -6.21511726	      8.07938891	     24.23933284	     44.68327976	      0.00000000	      0.00000000
     50.79371429	     -6.32701150	     -5.72054927	      1.39150985	      0.95261507	      0.91311454	      0.43177653	      6.49178861	     -2.69681792	    -12.20568134	     38.22719565	     38.22719565	     12.72893912	     -8.22674287	     -8.41747461	     31.67445501	     -7.52952619	     -2.70923480	     29.81240610	     29.81240610	      8.24809371	    -12.36474788	      3.71194866	     -9.33558913	      4.39217572	      3.63168945	     36.63769632	    -12.62803716	     -3.29875343	    101.92949802	     44.80285964	      0.00000000	      0.00000000	    -13.72140521	     -6.40036137	      8.04295740	     24.65168743	     44.71497556	      0.00000000	      0.00000000
     50.80492857	     -6.42632487	     -5.72234410	      1.23239999	      0.95223580	      0.91471947	      0.42978939	      8.31949265	     -3.01592327	    -11.68903941	     41.70207216	     41.70207216	     10.76032024	    -10.91164156	     -8.65808402	     30.95205628	     -7.54911303	     -3.13763483	     29.40492279	     29.40492279	      8.80567331	    -11.82763572	      3.45762347	     -9.30870547	      4.37645106	      4.23161545	     34.40574216	    -13.03809738	     -4.32592061	    102.92720068	     44.80800466	      0.00000000	      0.00000000	    -12.46214050	     -6.69729663	      7.94520136	     25.49394377	     44.77831762	      0.00000000	      0.00000000
     50.81614286	     -6.42841712	     -5.51822240	      1.10949102	      0.95175447	      0.91631070	      0.42772417	     10.13113474	     -3.79584009	    -11.69292655	     45.36042049	     45.36042049	      9.28996020	    -12.40522925	     -8.44956789	     30.05992791	     -7.31815808	     -3.59490699	     28.89681698	     28.89681698	      9.28171042	    -11.43105505	      3.25012712	     -9.37613644	      4.15671061	      3.96440351	     32.85135568	    -12.80569387	     -4.10644950	    102.58551837	     44.80718634	      0.00000000	      0.00000000	    -11.35184553	     -6.95287120	      7.88921977	     25.99695962	     44.81055449	      0.00000000	      0.00000000
     50.82735714	     -6.63284181	     -5.32823159	      0.87706457	      0.95100165	      0.91754632	      0.42598315	     12.34114843	     -4.37996044	    -11.29016269	     49.08803129	     49.08803129	      7.92633371	    -14.42356916	     -7.62486545	     29.35206445	     -7.15653186	     -4.18220914	     28.30398639	     28.30398639	      9.66268926	    -10.95591390	      2.95671570	     -9.19695345	      3.91524383	      3.90586517	     31.10076675	    -12.90132491	     -3.97816598	    102.11849692	     44.81376597	      0.00000000	      0.00000000	    -10.35241233	     -7.30180319	      7.73949323	     26.74691769	     44.85655257	      0.00000000	      0.00000000
     50.83857143	     -6.63196554	     -5.16611027	      0.74439740	      0.95023928	      0.91891501	      0.42431404	     14.27850767	     -4.97814222	    -11.14481387	     52.63182591	     52.63182591	      6.80707040	    -16.00736413	     -6.80672062	     28.51963533	     -6.99887960	     -4.64642239	     27.84353073	     27.84353073	      9.98742493	    -10.51410324	      2.69030576	     -9.27860670	      3.72638738	      3.72243905	     29.39466562	    -12.82802028	     -3.71066446	    101.56234366	     44.81763239	      0.00000000	      0.00000000	     -9.12018455	     -7.66879206	      7.58224670	     27.53527380	     44.90478038	      0.00000000	      0.00000000
     50.84978571	     -6.73809096	     -5.10476087	      0.52595143	      0.94934896	      0.91999108	      0.42293806	     16.64641502	     -5.29652108	    -10.64750263	     56.63097703	     56.63097703	      8.22997163	    -16.35407579	      0.95503501	     27.74446367	     -7.02126687	     -5.32537269	     27.24519016	     27.24519016	      9.93459652	     -9.97079508	      1.13827660	     -9.25278495	      3.63569784	      3.86652885	     27.37842124	    -13.19544075	     -3.74756234	    101.26735116	     44.84330026	      0.00000000	      0.00000000	     -8.49926381	     -8.21812410	      6.76495257	     30.22580687	     45.08377367	      0.00000000	      0.00000000
     50.86100000	     -6.72879302	     -4.89325039	      0.38419976	      0.94837885	      0.92114536	      0.42137176	     18.59936446	     -5.90466530	    -10.43779494	     59.84530458	     59.84530458	      7.40776602	    -17.42610728	      1.21508346	     26.91050522	     -6.77982374	     -5.75211605	     26.76834247	     26.76834247	     10.26145121	     -9.65578372	      1.00333690	     -9.33371780	      3.42328900	      3.56487845	     25.68671077	    -13.09548280	     -3.29888121	    100.32431381	     44.85320106	      0.00000000	      0.00000000	     -7.12699849	     -8.61272632	      6.63011390	     30.75335098	     45.12858893	      0.00000000	      0.00000000
     50.87221429	     -6.75260764	     -4.69689502	      0.21466498	      0.94737960	      0.92217289	      0.41985953	     20.59527727	     -6.46792195	    -10.15469324	     62.87788725	     62.87788725	      6.91831594	    -18.11522492	      1.70896889	     26.09944193	     -6.56227411	     -6.22110545	     26.27067539	     26.27067539	     10.59969926	     -9.28361223	      0.80415989	     -9.35899016	      3.25321983	      3.41991308	     23.90423147	    -13.25496907	     -2.86152577	     99.10939754	     44.87194673	      0.00000000	      0.00000000	     -5.73445452	     -9.02333931	      6.43567133	     31.44405872	     45.18169983	      0.00000000	      0.00000000
     50.88342857	     -6.67128411	     -4.62445605	      0.04378723	      0.94636580	      0.92323041	      0.41855570	     22.56811184	     -6.73604363	     -9.67926121	     65.87077356	     65.87077356	      7.65457946	    -18.21927187	      5.49208855	     25.20969002	     -6.50748326	     -6.68946897	     25.80861639	     25.80861639	     10.79333109	     -8.80739197	      0.01752494	     -9.45177893	      3.18522142	      3.35766463	     22.30071448	    -13.69916500	     -2.15203198	     96.81792884	     44.92530855	      0.00000000	      0.00000000	     -4.43440447	     -9.42587948	      5.86295806	     32.80537238	     45.30511081	      0.00000000	      0.00000000
     50.89464286	     -6.66329853	     -4.42259939	     -0.10457550	      0.94526010	      0.92411640	      0.41715392	     24.48086680	     -7.21689269	     -9.29898297	     68.35995154	     68.35995154	      7.33665065	    -18.47826837	      5.68067427	     24.40754286	     -6.24992201	     -7.07190815	     25.34591483	     25.34591483	     11.10595051	     -8.54870051	     -0.12520604	     -9.53961985	      3.06446218	      3.04147067	     20.52708813	    -13.66656426	     -1.69637962	     95.66369845	     44.94152234	      0.00000000	      0.00000000	     -2.96190873	     -9.88230042	      5.65408802	     33.45970298	     45.35917449	      0.00000000	      0.00000000
